<svg viewBox="0 0 640 360" xmlns="http://www.w3.org/2000/svg">
  <defs>
    <linearGradient id="park" x1="0" x2="1" y1="0" y2="1">
      <stop offset="0" stop-color="#cdebb4" />
      <stop offset="1" stop-color="#a7d989" />
    </linearGradient>
    <linearGradient id="road" x1="0" x2="1" y1="0" y2="0">
      <stop offset="0" stop-color="#b8c2d3" />
      <stop offset="1" stop-color="#d2d9e6" />
    </linearGradient>
  </defs>
  <rect width="640" height="360" fill="#f4f6f9" />
  <rect x="0" y="0" width="180" height="120" fill="url(#park)" />
  <rect x="0" y="220" width="210" height="140" fill="url(#park)" />
  <rect x="420" y="20" width="200" height="120" fill="#e9eef5" />
  <rect x="340" y="210" width="260" height="130" fill="#e9eef5" />

  <path d="M20 320 L200 80" stroke="url(#road)" stroke-width="22" stroke-linecap="round" />
  <path d="M100 30 L620 150" stroke="url(#road)" stroke-width="20" stroke-linecap="round" />
  <path d="M320 50 L320 340" stroke="url(#road)" stroke-width="18" stroke-linecap="round" />

  <rect x="210" y="90" width="140" height="80" rx="12" fill="#d7dde8" />
  <rect x="250" y="190" width="120" height="70" rx="12" fill="#d7dde8" />
  <rect x="90" y="140" width="110" height="60" rx="12" fill="#d7dde8" />
  <rect x="430" y="180" width="160" height="70" rx="14" fill="#d7dde8" />
  <rect x="470" y="60" width="120" height="60" rx="12" fill="#d7dde8" />

  <circle cx="140" cy="70" r="6" fill="#8bcf7b" />
  <circle cx="170" cy="95" r="6" fill="#8bcf7b" />
  <circle cx="70" cy="240" r="6" fill="#8bcf7b" />
  <circle cx="120" cy="260" r="6" fill="#8bcf7b" />
  <circle cx="540" cy="250" r="6" fill="#8bcf7b" />
  <circle cx="560" cy="270" r="6" fill="#8bcf7b" />

  <circle cx="220" cy="120" r="10" fill="#ff8b6a" />
  <circle cx="220" cy="120" r="4" fill="#fff" />
  <circle cx="460" cy="210" r="10" fill="#ff8b6a" />
  <circle cx="460" cy="210" r="4" fill="#fff" />
</svg>
